# xmcd
#
# Track frame offsets: 
#        150
#        15899
#        45130
#        59304
#        76104
#        89190
#        101283
#        111251
#        121624
#        150153
#        164467
#        181716
#        211310
#        229864
#        246055
#        265219
#        283992
#
# Disc length: 4426 seconds
#
# Revision: 0
# Processed by: cddbd v1.5.2PL0 Copyright (c) Steve Scherf et al.
# Submitted via: ExactAudioCopy v0.99pb4
#
DISCID=ca114811
DTITLE=ZIEBOLZ, Burkhard - Riesen and Zwerge (Krimi-7 CD-107 Tracks)
DYEAR=2006
DGENRE=Hörbuch
TTITLE0=045 Riesen and Zwerge-CD 4-01
TTITLE1=046 Riesen and Zwerge-CD 4-02
TTITLE2=047 Riesen and Zwerge-CD 4-03
TTITLE3=048 Riesen and Zwerge-CD 4-04
TTITLE4=049 Riesen and Zwerge-CD 4-05
TTITLE5=050 Riesen and Zwerge-CD 4-06
TTITLE6=051 Riesen and Zwerge-CD 4-07
TTITLE7=052 Riesen and Zwerge-CD 4-08
TTITLE8=053 Riesen and Zwerge-CD 4-09
TTITLE9=054 Riesen and Zwerge-CD 4-10
TTITLE10=055 Riesen and Zwerge-CD 4-11
TTITLE11=056 Riesen and Zwerge-CD 4-12
TTITLE12=057 Riesen and Zwerge-CD 4-13
TTITLE13=058 Riesen and Zwerge-CD 4-14
TTITLE14=059 Riesen and Zwerge-CD 4-15
TTITLE15=060 Riesen and Zwerge-CD 4-16
TTITLE16=061 Riesen and Zwerge-CD 4-17
EXTD=
EXTT0=
EXTT1=
EXTT2=
EXTT3=
EXTT4=
EXTT5=
EXTT6=
EXTT7=
EXTT8=
EXTT9=
EXTT10=
EXTT11=
EXTT12=
EXTT13=
EXTT14=
EXTT15=
EXTT16=
PLAYORDER=
